{"title":"Summerhill.TV.2008.John.East.mp4","uid":8307272,"size":608324167,"categoryP":"video","categoryS":"movies","magnet":"?xt=urn:btih:dc4ad4e1e7144767dabc95aaa907405efc4076b2&amp;dn=Summerhill.TV.2008.John.East.mp4&amp;tr=udp%3A%2F%2Ftracker.openbittorrent.com%3A80&amp;tr=udp%3A%2F%2Fopen.demonii.com%3A1337&amp;tr=udp%3A%2F%2Ftracker.coppersurfer.tk%3A6969&amp;tr=udp%3A%2F%2Fexodus.desync.com%3A6969","seeders":1,"leechers":0,"uploader":"corcast","files":1,"time":1364403924,"description":"John East's 2008 TV Movie &quot;Summerhill&quot;\n\nSummerhill, whose headmistress is Zoe Redhead, is a seventy year old progressive school, run on cooperative lines with pupils having an equal say in its constitution. However officious OFSTED inspector Wharton regards it as a waste of money and a means of teaching children disrespect - though his assistant Myrtle is charmed by its ambience. In a court hearing to decide the school's future barrister Geoffrey Robertson points to the many alumni from the school but also, thanks to a tip-off from a pupil, is able to reveal that Wharton had told Myrtle that the school was virtually due for closure and the inspection was purely a formality. Consequently Summerhill is saved, Myrtle gets to teach there and the children launch a pirate ship with the banner 'Freedom' to celebrate the victory. Two children whose future at the school looked uncertain are also given cause to celebrate.\n\nGeneral\nComplete name : Summerhill.TV.2008.John.East.mp4\nFormat : MPEG-4\nFormat profile : Base Media\nCodec ID : isom\nFile size : 580 MiB\nDuration : 1h 53mn\nOverall bit rate mode : Variable\nOverall bit rate : 712 Kbps\nMovie name : Summerhill.mp4\nWriting application : Lavf53.24.0\n\nVideo\nID : 1\nFormat : AVC\nFormat/Info : Advanced Video Codec\nFormat profile : &lt;a class=&quot;__cf_email__&quot; href=&quot;/cdn-cgi/l/email-protection&quot; data-cfemail=&quot;89c1e0eee1c9c5baa7b8&quot;&gt;[email&amp;#160;protected]&lt;/a&gt;&lt;script cf-hash='f9e31' type=&quot;text/javascript&quot;&gt;\n/* &lt;![CDATA[ */!function(){try{var t=&quot;currentScript&quot;in document?document.currentScript:function(){for(var t=document.getElementsByTagName(&quot;script&quot;),e=t.length;e--;)if(t[e].getAttribute(&quot;cf-hash&quot;))return t[e]}();if(t&amp;&amp;t.previousSibling){var e,r,n,i,c=t.previousSibling,a=c.getAttribute(&quot;data-cfemail&quot;);if(a){for(e=&quot;&quot;,r=parseInt(a.substr(0,2),16),n=2;a.length-n;n+=2)i=parseInt(a.substr(n,2),16)^r,e+=String.fromCharCode(i);e=document.createTextNode(e),c.parentNode.replaceChild(e,c)}}}catch(u){}}();/* ]]&gt; */&lt;/script&gt;\nFormat settings, CABAC : Yes\nFormat settings, ReFrames : 4 frames\nCodec ID : avc1\nCodec ID/Info : Advanced Video Coding\nDuration : 1h 53mn\nBit rate : 596 Kbps\nWidth : 640 pixels\nHeight : 360 pixels\nDisplay aspect ratio : 16:9\nFrame rate mode : Constant\nFrame rate : 25.000 fps\nColor space : YUV\nChroma subsampling : 4:2:0\nBit depth : 8 bits\nScan type : Progressive\nBits/(Pixel*Frame) : 0.104\nStream size : 486 MiB (84%)\nWriting library : Vimeo Encoder\n\nAudio\nID : 2\nFormat : AAC\nFormat/Info : Advanced Audio Codec\nFormat profile : LC\nCodec ID : 40\nDuration : 1h 53mn\nBit rate mode : Variable\nBit rate : 109 Kbps\nMaximum bit rate : 128 Kbps\nChannel(s) : 2 channels\nChannel positions : Front: L R\nSampling rate : 44.1 KHz\nCompression mode : Lossy\nStream size : 88.9 MiB (15%)","torrent":{"xt":"urn:btih:dc4ad4e1e7144767dabc95aaa907405efc4076b2","amp;dn":"Summerhill.TV.2008.John.East.mp4","amp;tr":["udp%3A%2F%2Ftracker.openbittorrent.com%3A80","udp%3A%2F%2Fopen.demonii.com%3A1337","udp%3A%2F%2Ftracker.coppersurfer.tk%3A6969","udp%3A%2F%2Fexodus.desync.com%3A6969"],"infoHash":"dc4ad4e1e7144767dabc95aaa907405efc4076b2","infoHashBuffer":{"type":"Buffer","data":[220,74,212,225,231,20,71,103,218,188,149,170,169,7,64,94,252,64,118,178]},"announce":[],"urlList":[]}}